<svg width="512" height="512" viewBox="0 0 512 512" xmlns="http://www.w3.org/2000/svg">
<rect width="512" height="512" rx="96" fill="#F7F4EF"/>
<g>
  <line x1="100" y1="154" x2="218" y2="224" stroke="#A06010" stroke-width="6.5" stroke-linecap="round" opacity="0.2"/>
  <line x1="100" y1="256" x2="218" y2="224" stroke="#A06010" stroke-width="6.5" stroke-linecap="round" opacity="0.26"/>
  <line x1="100" y1="368" x2="218" y2="288" stroke="#A06010" stroke-width="6.5" stroke-linecap="round" opacity="0.2"/>
  <line x1="100" y1="256" x2="218" y2="288" stroke="#A06010" stroke-width="6.5" stroke-linecap="round" opacity="0.18"/>
  <line x1="218" y1="224" x2="336" y2="186" stroke="#A06010" stroke-width="9.5" stroke-linecap="round" opacity="0.38"/>
  <line x1="218" y1="224" x2="336" y2="256" stroke="#A06010" stroke-width="11"  stroke-linecap="round" opacity="0.52"/>
  <line x1="218" y1="288" x2="336" y2="256" stroke="#A06010" stroke-width="9.5" stroke-linecap="round" opacity="0.45"/>
  <line x1="218" y1="288" x2="336" y2="326" stroke="#A06010" stroke-width="8"   stroke-linecap="round" opacity="0.35"/>
  <line x1="336" y1="186" x2="421" y2="256" stroke="#A06010" stroke-width="13"  stroke-linecap="round" opacity="0.6"/>
  <line x1="336" y1="256" x2="421" y2="256" stroke="#A06010" stroke-width="16"  stroke-linecap="round" opacity="0.82"/>
  <line x1="336" y1="326" x2="421" y2="256" stroke="#A06010" stroke-width="12"  stroke-linecap="round" opacity="0.55"/>
  <circle cx="100" cy="154" r="19"  fill="#A06010" opacity="0.22"/>
  <circle cx="100" cy="256" r="19"  fill="#A06010" opacity="0.26"/>
  <circle cx="100" cy="368" r="19"  fill="#A06010" opacity="0.2"/>
  <circle cx="218" cy="224" r="27"  fill="#A06010" opacity="0.42"/>
  <circle cx="218" cy="288" r="27"  fill="#A06010" opacity="0.38"/>
  <circle cx="336" cy="186" r="24"  fill="#A06010" opacity="0.52"/>
  <circle cx="336" cy="256" r="29"  fill="#A06010" opacity="0.68"/>
  <circle cx="336" cy="326" r="24"  fill="#A06010" opacity="0.48"/>
  <circle cx="421" cy="256" r="59"  fill="#A06010"/>
  <circle cx="421" cy="256" r="29"  fill="#F7F4EF" opacity="0.35"/>
</g>
</svg>