<svg width="192" height="192" viewBox="0 0 192 192" xmlns="http://www.w3.org/2000/svg"><defs><radialGradient id="bg" cx="40%" cy="35%" r="70%"><stop offset="0%" stop-color="#1e2240"/><stop offset="60%" stop-color="#0e1128"/><stop offset="100%" stop-color="#060810"/></radialGradient><radialGradient id="glow" cx="50%" cy="50%" r="50%"><stop offset="0%" stop-color="#E8A838" stop-opacity="0.2"/><stop offset="100%" stop-color="#E8A838" stop-opacity="0"/></radialGradient><filter id="gf"><feGaussianBlur stdDeviation="4" result="b"/><feMerge><feMergeNode in="b"/><feMergeNode in="SourceGraphic"/></feMerge></filter></defs><rect width="192" height="192" rx="36" fill="url(#bg)"/><g opacity="0.85"><circle cx="20" cy="18" r="0.9" fill="white" opacity="0.9"/><circle cx="55" cy="11" r="0.7" fill="white" opacity="0.7"/><circle cx="140" cy="16" r="0.8" fill="white" opacity="0.8"/><circle cx="170" cy="30" r="0.9" fill="white" opacity="0.7"/><circle cx="180" cy="14" r="0.6" fill="white" opacity="0.6"/><circle cx="10" cy="110" r="0.7" fill="white" opacity="0.7"/><circle cx="182" cy="130" r="0.8" fill="white" opacity="0.6"/><circle cx="15" cy="170" r="0.9" fill="white" opacity="0.7"/><circle cx="175" cy="175" r="0.8" fill="white" opacity="0.8"/><circle cx="64" cy="182" r="0.7" fill="white" opacity="0.6"/><circle cx="75" cy="14" r="1.2" fill="white" opacity="0.95"/><circle cx="160" cy="20" r="1.0" fill="#E8D4A0" opacity="0.9"/></g><ellipse cx="96" cy="102" rx="60" ry="48" fill="url(#glow)"/><g filter="url(#gf)" transform="translate(96,100)"><path d="M 0,-40 C 7,-45 20,-44 27,-35 C 34,-27 33,-18 30,-10 C 36,-7 40,0 38,8 C 36,16 29,20 22,18 C 20,26 14,33 5,35 C 1,35 0,34 0,31 L 0,-40 Z" fill="#E8A838" opacity="0.95"/><path d="M 0,-40 C -7,-45 -20,-44 -27,-35 C -34,-27 -33,-18 -30,-10 C -36,-7 -40,0 -38,8 C -36,16 -29,20 -22,18 C -20,26 -14,33 -5,35 C -1,35 0,34 0,31 L 0,-40 Z" fill="#E8A838" opacity="0.95"/><line x1="0" y1="-40" x2="0" y2="31" stroke="#1a1f2e" stroke-width="1.5" opacity="0.5"/><path d="M 10,-26 C 20,-22 22,-14 16,-8" stroke="#c47a18" stroke-width="2" fill="none" stroke-linecap="round" opacity="0.7"/><path d="M 20,-10 C 26,-5 25,4 18,9" stroke="#c47a18" stroke-width="2" fill="none" stroke-linecap="round" opacity="0.7"/><path d="M -10,-26 C -20,-22 -22,-14 -16,-8" stroke="#c47a18" stroke-width="2" fill="none" stroke-linecap="round" opacity="0.7"/><path d="M -20,-10 C -26,-5 -25,4 -18,9" stroke="#c47a18" stroke-width="2" fill="none" stroke-linecap="round" opacity="0.7"/><path d="M 3,-20 L -4,-2 L 2,-2 L -3,20 L 5,0 L 0,0 L 7,-20 Z" fill="#fff8e0" opacity="0.95"/></g><circle cx="96" cy="100" r="55" fill="none" stroke="#E8A838" stroke-width="1" opacity="0.2"/></svg>