<svg width="512" height="512" viewBox="0 0 512 512" xmlns="http://www.w3.org/2000/svg"><defs><radialGradient id="bg" cx="40%" cy="35%" r="70%"><stop offset="0%" stop-color="#1e2240"/><stop offset="60%" stop-color="#0e1128"/><stop offset="100%" stop-color="#060810"/></radialGradient><radialGradient id="glow" cx="50%" cy="50%" r="50%"><stop offset="0%" stop-color="#E8A838" stop-opacity="0.18"/><stop offset="100%" stop-color="#E8A838" stop-opacity="0"/></radialGradient><filter id="gf"><feGaussianBlur stdDeviation="12" result="b"/><feMerge><feMergeNode in="b"/><feMergeNode in="SourceGraphic"/></feMerge></filter></defs><rect width="512" height="512" rx="96" fill="url(#bg)"/><g opacity="0.9"><circle cx="52" cy="48" r="1.8" fill="white" opacity="0.9"/><circle cx="130" cy="30" r="1.2" fill="white" opacity="0.7"/><circle cx="200" cy="68" r="2.2" fill="white" opacity="0.8"/><circle cx="310" cy="22" r="1.4" fill="white" opacity="0.6"/><circle cx="390" cy="55" r="1.8" fill="white" opacity="0.85"/><circle cx="460" cy="35" r="1.2" fill="white" opacity="0.7"/><circle cx="480" cy="90" r="2.0" fill="white" opacity="0.5"/><circle cx="28" cy="130" r="1.5" fill="white" opacity="0.6"/><circle cx="75" cy="200" r="1.2" fill="white" opacity="0.8"/><circle cx="440" cy="140" r="1.8" fill="white" opacity="0.7"/><circle cx="495" cy="200" r="1.3" fill="white" opacity="0.5"/><circle cx="38" cy="310" r="1.6" fill="white" opacity="0.7"/><circle cx="22" cy="400" r="1.2" fill="white" opacity="0.6"/><circle cx="58" cy="460" r="1.8" fill="white" opacity="0.8"/><circle cx="480" cy="350" r="1.4" fill="white" opacity="0.6"/><circle cx="500" cy="430" r="1.8" fill="white" opacity="0.7"/><circle cx="450" cy="480" r="1.3" fill="white" opacity="0.5"/><circle cx="160" cy="490" r="1.6" fill="white" opacity="0.7"/><circle cx="350" cy="498" r="1.2" fill="white" opacity="0.6"/><circle cx="170" cy="42" r="2.8" fill="white" opacity="0.95"/><circle cx="420" cy="88" r="2.4" fill="#E8D4A0" opacity="0.9"/><circle cx="88" cy="88" r="2.0" fill="#B0C8FF" opacity="0.85"/><circle cx="470" cy="470" r="2.6" fill="white" opacity="0.9"/><circle cx="42" cy="470" r="2.0" fill="#B0C8FF" opacity="0.8"/></g><ellipse cx="256" cy="268" rx="160" ry="130" fill="url(#glow)"/><g filter="url(#gf)" transform="translate(256,264)"><path d="M 0,-108 C 20,-120 55,-118 72,-95 C 90,-72 88,-48 80,-28 C 95,-18 108,0 102,22 C 96,44 78,52 60,48 C 52,70 36,88 12,92 C 4,94 0,90 0,82 L 0,-108 Z" fill="#E8A838" opacity="0.92"/><path d="M 0,-108 C -20,-120 -55,-118 -72,-95 C -90,-72 -88,-48 -80,-28 C -95,-18 -108,0 -102,22 C -96,44 -78,52 -60,48 C -52,70 -36,88 -12,92 C -4,94 0,90 0,82 L 0,-108 Z" fill="#E8A838" opacity="0.92"/><line x1="0" y1="-108" x2="0" y2="82" stroke="#1a1f2e" stroke-width="4" opacity="0.6"/><path d="M 28,-72 C 52,-60 58,-38 44,-20" stroke="#c47a18" stroke-width="5" fill="none" stroke-linecap="round" opacity="0.7"/><path d="M 52,-30 C 68,-14 66,10 50,24" stroke="#c47a18" stroke-width="5" fill="none" stroke-linecap="round" opacity="0.7"/><path d="M 20,36 C 42,28 56,40 48,60" stroke="#c47a18" stroke-width="5" fill="none" stroke-linecap="round" opacity="0.7"/><path d="M -28,-72 C -52,-60 -58,-38 -44,-20" stroke="#c47a18" stroke-width="5" fill="none" stroke-linecap="round" opacity="0.7"/><path d="M -52,-30 C -68,-14 -66,10 -50,24" stroke="#c47a18" stroke-width="5" fill="none" stroke-linecap="round" opacity="0.7"/><path d="M -20,36 C -42,28 -56,40 -48,60" stroke="#c47a18" stroke-width="5" fill="none" stroke-linecap="round" opacity="0.7"/><path d="M 8,-52 L -10,-4 L 4,-4 L -8,52 L 14,2 L 0,2 L 18,-52 Z" fill="#fff8e0" opacity="0.95"/></g><circle cx="256" cy="264" r="148" fill="none" stroke="#E8A838" stroke-width="2.5" opacity="0.18"/></svg>