<svg width="192" height="192" viewBox="0 0 192 192" xmlns="http://www.w3.org/2000/svg">
<rect width="192" height="192" rx="36" fill="#F7F4EF"/>
<g>
  <line x1="38" y1="58"  x2="82" y2="84"  stroke="#A06010" stroke-width="2.5" stroke-linecap="round" opacity="0.2"/>
  <line x1="38" y1="96"  x2="82" y2="84"  stroke="#A06010" stroke-width="2.5" stroke-linecap="round" opacity="0.26"/>
  <line x1="38" y1="138" x2="82" y2="108" stroke="#A06010" stroke-width="2.5" stroke-linecap="round" opacity="0.2"/>
  <line x1="38" y1="96"  x2="82" y2="108" stroke="#A06010" stroke-width="2.5" stroke-linecap="round" opacity="0.18"/>
  <line x1="82" y1="84"  x2="126" y2="70" stroke="#A06010" stroke-width="3.5" stroke-linecap="round" opacity="0.38"/>
  <line x1="82" y1="84"  x2="126" y2="96" stroke="#A06010" stroke-width="4"   stroke-linecap="round" opacity="0.52"/>
  <line x1="82" y1="108" x2="126" y2="96" stroke="#A06010" stroke-width="3.5" stroke-linecap="round" opacity="0.45"/>
  <line x1="82" y1="108" x2="126" y2="122" stroke="#A06010" stroke-width="3"  stroke-linecap="round" opacity="0.35"/>
  <line x1="126" y1="70"  x2="158" y2="96" stroke="#A06010" stroke-width="5"   stroke-linecap="round" opacity="0.6"/>
  <line x1="126" y1="96"  x2="158" y2="96" stroke="#A06010" stroke-width="6"   stroke-linecap="round" opacity="0.82"/>
  <line x1="126" y1="122" x2="158" y2="96" stroke="#A06010" stroke-width="4.5" stroke-linecap="round" opacity="0.55"/>
  <circle cx="38"  cy="58"  r="7"  fill="#A06010" opacity="0.22"/>
  <circle cx="38"  cy="96"  r="7"  fill="#A06010" opacity="0.26"/>
  <circle cx="38"  cy="138" r="7"  fill="#A06010" opacity="0.2"/>
  <circle cx="82"  cy="84"  r="10" fill="#A06010" opacity="0.42"/>
  <circle cx="82"  cy="108" r="10" fill="#A06010" opacity="0.38"/>
  <circle cx="126" cy="70"  r="9"  fill="#A06010" opacity="0.52"/>
  <circle cx="126" cy="96"  r="11" fill="#A06010" opacity="0.68"/>
  <circle cx="126" cy="122" r="9"  fill="#A06010" opacity="0.48"/>
  <circle cx="158" cy="96"  r="22" fill="#A06010"/>
  <circle cx="158" cy="96"  r="11" fill="#F7F4EF" opacity="0.35"/>
</g>
</svg>
